<?xml version="1.0" encoding="utf-8"?>
<!-- Generator: Adobe Illustrator 27.5.0, SVG Export Plug-In . SVG Version: 6.00 Build 0)  -->
<svg version="1.1" xmlns="http://www.w3.org/2000/svg" xmlns:xlink="http://www.w3.org/1999/xlink" x="0px" y="0px"
	 viewBox="0 0 2200 2200" style="enable-background:new 0 0 2200 2200;" xml:space="preserve">
<g id="background">
	<rect x="0" style="fill:#FFFFFF;" width="2200" height="2200"/>
</g>
<g id="Objects">
	<g>
		<g>
			<path d="M354.62,846.029c-53.023,17.026-112.892-21.761-133.706-86.622c-27.031-84.203-8.904-175.426,44.129-192.442
				c53.023-17.026,122.825,52.725,147.89,130.803C433.748,762.629,407.654,829.003,354.62,846.029z"/>
			<path d="M835.854,1045.892c-77.687,13.114-113.777-15.739-163.599-7.339c-49.832,8.41-74.445,47.506-152.132,60.61
				c-101.702,17.149-198.464-96.37-120.324-195.407c97.111-123.062,107.714-259.032,203.292-275.152
				c95.588-16.12,150.207,108.836,282.317,193.234C991.711,889.757,937.546,1028.743,835.854,1045.892z"/>
			<path d="M599.488,455.277c-6.691-81.722,31.149-172.863,86.643-177.413c55.514-4.54,107.137,72.818,114.353,160.953
				c5.559,67.898-34.927,126.624-90.431,131.163C654.549,574.531,605.047,523.175,599.488,455.277z"/>
			<path d="M354.363,514.075c-22.09-85.623,1.297-175.642,55.226-189.549c53.919-13.917,119.562,59.766,140.047,139.161
				c17.026,65.962-12.888,130.71-66.807,144.627C428.9,622.232,371.389,580.038,354.363,514.075z"/>
			<path d="M909.145,752.479c-55.679,1.318-102.114-52.828-103.73-120.931c-1.935-81.969,41.134-170.763,96.802-172.07
				c55.679-1.318,102.732,78.902,104.821,167.305C1008.645,694.885,964.814,751.161,909.145,752.479z"/>
		</g>
		<g>
			<path d="M1786.596,1043.535c71.974,103.607-31.519,211.022-131.987,187.717c-76.74-17.819-98.933-58.335-148.158-69.761
				c-49.225-11.426-86.992,15.183-163.743-2.625c-100.457-23.315-146.068-165.349-35.822-226.669
				c137-76.194,199.133-197.599,293.547-175.684C1694.858,778.43,1697.164,914.781,1786.596,1043.535z"/>
			<path d="M1973.942,910.334c-24.726,63.471-86.838,98.542-138.729,78.325c-51.891-20.217-73.909-88.063-49.184-151.545
				c29.77-76.4,103.699-141.766,155.59-121.549C1993.5,735.782,2006.048,827.932,1973.942,910.334z"/>
			<path d="M1414.96,555.065c12.569-87.538,68.814-161.612,123.937-153.696c55.123,7.916,87.343,101.188,75.69,182.354
				c-9.687,67.434-62.226,115.681-117.339,107.765C1442.125,683.573,1405.284,622.489,1414.96,555.065z"/>
			<path d="M1663.832,595.149c25.282-77.996,95.289-147.551,148.261-130.37c52.982,17.17,70.852,108.445,43.584,192.555
				c-21.01,64.81-80.981,103.421-133.963,86.241C1668.742,726.415,1642.823,659.959,1663.832,595.149z"/>
			<path d="M1287.41,861.531c-55.484-4.704-95.814-63.543-90.06-131.42c7.473-88.115,59.323-165.328,114.806-160.624
				c55.494,4.704,93.076,95.948,86.149,177.65C1392.55,815.014,1342.904,866.235,1287.41,861.531z"/>
		</g>
		<path d="M1634.277,1778.227c0,79.581-64.518,144.099-144.106,144.099c-79.581,0-144.099-64.518-144.099-144.099
			c0-9.309,0.883-18.416,2.571-27.229H847.709c1.688,8.813,2.571,17.92,2.571,27.229c0,79.581-64.518,144.099-144.106,144.099
			c-79.581,0-144.099-64.518-144.099-144.099c0-48.394,23.853-91.213,60.444-117.342c-36.592-26.137-60.444-68.956-60.444-117.342
			c0-79.589,64.518-144.106,144.099-144.106c79.588,0,144.106,64.518,144.106,144.106c0,9.309-0.883,18.408-2.571,27.221h500.934
			c-1.688-8.813-2.571-17.913-2.571-27.221c0-79.589,64.518-144.106,144.099-144.106c79.589,0,144.106,64.518,144.106,144.106
			c0,48.387-23.853,91.205-60.444,117.342C1610.424,1687.014,1634.277,1729.833,1634.277,1778.227z"/>
	</g>
</g>
</svg>
